<?xml version="1.0" encoding="utf-8"?>
<!-- Generator: Adobe Illustrator 25.2.3, SVG Export Plug-In . SVG Version: 6.00 Build 0)  -->
<svg version="1.1" id="Layer_1" xmlns="http://www.w3.org/2000/svg" xmlns:xlink="http://www.w3.org/1999/xlink" x="0px" y="0px"
	 viewBox="0 0 406 306" style="enable-background:new 0 0 406 306;" xml:space="preserve">
<style type="text/css">
	.st0{fill:#FFFFFF;}
	.st1{fill:#231F20;}
	.st2{fill:none;}
	.st3{fill:#D1D3D4;}
	.st4{fill:#63A894;}
</style>
<g id="_183_code_java_flatline">
	<polygon class="st0" points="306.5,184.8 305.3,194.1 322.3,243.6 382,242.9 383.3,234.7 	"/>
	<path class="st1" d="M322.3,244.1c-0.2,0-0.4-0.1-0.5-0.3l-17-49.4c0-0.1,0-0.2,0-0.2l1.2-9.4c0-0.3,0.3-0.5,0.5-0.5
		c0.1,0,0.2,0,0.2,0.1l76.8,49.9c0.2,0.1,0.3,0.3,0.2,0.5l-1.4,8.2c0,0.2-0.2,0.4-0.5,0.4L322.3,244.1L322.3,244.1z M305.8,194.1
		l16.9,49l58.9-0.7l1.2-7.4l-75.9-49.3L305.8,194.1z"/>
	<path class="st0" d="M323.7,235.1l-17.3-50.3l52-0.2l24.8,50.2L323.7,235.1z"/>
	<path class="st1" d="M323.7,235.6c-0.2,0-0.4-0.1-0.5-0.3L306,184.9c-0.1-0.3,0.1-0.6,0.3-0.6c0.1,0,0.1,0,0.2,0l52-0.2l0,0
		c0.2,0,0.4,0.1,0.5,0.3l24.8,50.2c0.1,0.2,0.1,0.3,0,0.5c-0.1,0.2-0.3,0.2-0.4,0.2L323.7,235.6L323.7,235.6z M307.2,185.3
		l16.9,49.2l58.4-0.3L358.1,185L307.2,185.3z"/>
	<line class="st2" x1="323.7" y1="235.1" x2="322.3" y2="243.6"/>
	<path class="st1" d="M322.3,244.1L322.3,244.1c-0.4-0.1-0.5-0.3-0.5-0.6l1.4-8.5c0-0.3,0.3-0.5,0.6-0.4c0.3,0,0.5,0.3,0.4,0.6
		l-1.4,8.5C322.8,243.9,322.6,244.1,322.3,244.1z"/>
	<path class="st3" d="M66.3,170.4c-0.1,0-0.2,0-0.3-0.1c-0.2-0.2-0.2-0.5-0.1-0.7c0,0,0,0,0,0c1.5-2,2.1-4.6,1.5-7
		c-0.4-1.3-0.9-2.5-1.5-3.6c-0.4-0.8-0.8-1.6-1.2-2.4c-1.6-4.1-1.2-8.6,1-12.4c0.2-0.2,0.5-0.3,0.7-0.1c0.2,0.2,0.3,0.4,0.1,0.7
		c-2,3.5-2.4,7.7-1,11.5c0.3,0.8,0.7,1.6,1.1,2.3c0.7,1.2,1.2,2.5,1.6,3.8c0.7,2.7,0.1,5.6-1.7,7.9
		C66.6,170.3,66.4,170.4,66.3,170.4z"/>
	<path class="st3" d="M54.6,172.3c-0.1,0-0.2,0-0.2-0.1c-0.3-0.1-0.4-0.4-0.2-0.7c0,0,0,0,0,0c1.8-3.6,3.5-8.8,1.5-12.5
		c-0.5-0.8-1-1.6-1.7-2.3c-1.2-1.1-2-2.6-2.4-4.2c-0.4-2.4,0.9-4.7,2-6.6c0.1-0.2,0.5-0.3,0.7-0.2c0.2,0.1,0.3,0.5,0.2,0.7
		c-1.1,1.8-2.3,3.8-1.9,5.9c0.4,1.4,1.2,2.7,2.2,3.7c0.7,0.7,1.3,1.6,1.8,2.4c2.2,4.1,0.4,9.5-1.5,13.4
		C55,172.2,54.8,172.3,54.6,172.3z"/>
	<path class="st3" d="M76.9,171.3c-0.3,0-0.5-0.2-0.5-0.5c0-0.2,0.1-0.3,0.2-0.4c1.4-1,1.4-3.8,0.7-5.9c-0.2-0.7-0.5-1.3-0.8-2
		c-0.7-1.5-1.2-3.1-1.3-4.8c-0.2-2.2,0.7-4.4,2.4-5.8c0.2-0.2,0.5-0.1,0.7,0.1c0.2,0.2,0.1,0.5-0.1,0.7c-1.4,1.3-2.2,3.1-2,5
		c0.2,1.5,0.6,3,1.3,4.4c0.3,0.7,0.6,1.4,0.8,2.1c0.8,2.4,0.8,5.6-1,7.1C77.1,171.2,77,171.3,76.9,171.3z"/>
	<path d="M92.6,247h221.8l0,0v5c0,2.6-2.1,4.7-4.7,4.7H97.3c-2.6,0-4.7-2.1-4.7-4.7V247L92.6,247z"/>
	<path class="st0" d="M310.6,251.2H96.4c-2.1,0-3.8-1.7-3.8-3.8c0-0.4,0.1-0.8,0.2-1.2l19.3-56.8c1.7-5,6.4-8.4,11.7-8.4h159.4
		c5.3,0,10.1,3.4,11.8,8.5l19.3,56.8c0.7,2-0.4,4.1-2.4,4.8C311.4,251.1,311,251.2,310.6,251.2z"/>
	<path class="st1" d="M310.6,251.6H96.4c-2.3,0-4.3-1.9-4.3-4.2c0-0.5,0.1-1,0.2-1.4l19.3-56.8c1.8-5.2,6.7-8.7,12.2-8.8h159.4
		c5.5,0,10.4,3.6,12.2,8.8l19.3,56.8c0.8,2.2-0.4,4.6-2.7,5.4C311.5,251.6,311.1,251.7,310.6,251.6L310.6,251.6z M123.8,181.4
		c-5.1,0-9.7,3.3-11.4,8.1l-19.3,56.8c-0.6,1.7,0.3,3.6,2.1,4.2c0.3,0.1,0.7,0.2,1.1,0.2h214.2c1.8,0,3.3-1.5,3.3-3.4
		c0-0.4-0.1-0.7-0.2-1l-19.3-56.8c-1.7-4.9-6.2-8.1-11.4-8.1H123.8z"/>
	<path class="st3" d="M291.8,217.8H115.1c-0.2,0-0.3-0.1-0.4-0.2c-0.1-0.1-0.1-0.3-0.1-0.4l8.5-28.6c0.1-0.2,0.3-0.4,0.5-0.4h159.8
		c0.2,0,0.4,0.1,0.5,0.4l8.5,28.6c0.1,0.2,0,0.3-0.1,0.4C292.1,217.8,292,217.8,291.8,217.8z M115.8,216.8h175.4l-8.2-27.5h-159
		L115.8,216.8z"/>
	<path class="st3" d="M236.5,243.5h-66.1c-0.2,0-0.3-0.1-0.4-0.2c-0.1-0.1-0.1-0.3-0.1-0.4l4.4-19.9c0-0.2,0.3-0.4,0.5-0.4h57.3
		c0.2,0,0.4,0.2,0.5,0.4l4.4,19.9C237,243.2,236.8,243.4,236.5,243.5C236.5,243.5,236.5,243.5,236.5,243.5L236.5,243.5z
		 M171.1,242.5h64.8l-4.1-18.8h-56.5L171.1,242.5z"/>
	<path class="st0" d="M121.3,49.3h164.2c3.6,0,6.6,2.9,6.6,6.6v118.4c0,3.6-2.9,6.6-6.6,6.6H121.3c-3.6,0-6.6-2.9-6.6-6.6V55.9
		C114.7,52.3,117.7,49.3,121.3,49.3z"/>
	<path class="st1" d="M285.5,181.4H121.3c-3.9,0-7-3.2-7-7V55.9c0-3.9,3.2-7,7-7h164.2c3.9,0,7,3.2,7,7l0,0v118.4
		C292.5,178.2,289.4,181.4,285.5,181.4z M121.3,49.8c-3.4,0-6.1,2.7-6.1,6.1v118.5c0,3.4,2.7,6.1,6.1,6.1h164.2
		c3.4,0,6.1-2.7,6.1-6.1V55.9c0-3.4-2.7-6.1-6.1-6.1L121.3,49.8z"/>
	<rect x="121.1" y="56.4" width="164.2" height="117.2"/>
	<rect x="121.1" y="56.4" class="st3" width="52" height="117.2"/>
	<path class="st0" d="M198,94h-8.9c-0.3,0-0.5-0.2-0.5-0.5c0-0.3,0.2-0.5,0.5-0.5h8.9c0.3,0,0.5,0.2,0.5,0.5S198.3,94,198,94z"/>
	<path class="st4" d="M220.5,94h-17.8c-0.3,0-0.5-0.2-0.5-0.5c0-0.3,0.2-0.5,0.5-0.5h17.8c0.3,0,0.5,0.2,0.5,0.5S220.8,94,220.5,94
		L220.5,94z"/>
	<path class="st4" d="M225.9,100.3h-17.8c-0.3,0-0.5-0.2-0.5-0.5s0.2-0.5,0.5-0.5h17.8c0.3,0,0.5,0.2,0.5,0.5
		S226.2,100.3,225.9,100.3L225.9,100.3z"/>
	<path class="st0" d="M200.1,100.3h-8.9c-0.3,0-0.5-0.2-0.5-0.5s0.2-0.5,0.5-0.5h8.9c0.3,0,0.5,0.2,0.5,0.5S200.4,100.3,200.1,100.3
		z"/>
	<path class="st0" d="M200.5,106.5h-7.2c-0.3,0-0.5-0.2-0.5-0.5c0-0.3,0.2-0.5,0.5-0.5h7.2c0.3,0,0.5,0.2,0.5,0.5
		C201,106.3,200.8,106.5,200.5,106.5z"/>
	<path class="st4" d="M229.1,106.5h-22.3c-0.3,0-0.5-0.2-0.5-0.5c0-0.3,0.2-0.5,0.5-0.5h22.3c0.3,0,0.5,0.2,0.5,0.5
		C229.6,106.3,229.4,106.5,229.1,106.5z"/>
	<path class="st0" d="M204.3,112.8h-8.9c-0.3,0-0.5-0.2-0.5-0.5c0-0.3,0.2-0.5,0.5-0.5h8.9c0.3,0,0.5,0.2,0.5,0.5
		C204.8,112.6,204.6,112.8,204.3,112.8z"/>
	<path class="st4" d="M233.7,112.8h-26.5c-0.3,0-0.5-0.2-0.5-0.5c0-0.3,0.2-0.5,0.5-0.5h26.5c0.3,0,0.5,0.2,0.5,0.5
		C234.2,112.6,234,112.8,233.7,112.8z"/>
	<path class="st0" d="M202,119h-8.9c-0.3,0-0.5-0.2-0.5-0.5c0-0.3,0.2-0.5,0.5-0.5h8.9c0.3,0,0.5,0.2,0.5,0.5
		C202.5,118.8,202.3,119,202,119z"/>
	<path class="st4" d="M219.8,119h-14.4c-0.3,0-0.5-0.2-0.5-0.5c0-0.3,0.2-0.5,0.5-0.5h14.4c0.3,0,0.5,0.2,0.5,0.5
		C220.3,118.8,220,119,219.8,119z"/>
	<path class="st4" d="M239.6,119h-14.4c-0.3,0-0.5-0.2-0.5-0.5c0-0.3,0.2-0.5,0.5-0.5h14.4c0.3,0,0.5,0.2,0.5,0.5
		C240.1,118.8,239.9,119,239.6,119z"/>
	<path class="st0" d="M196.1,125.3h-3c-0.3,0-0.5-0.2-0.5-0.5c0-0.3,0.2-0.5,0.5-0.5h3c0.3,0,0.5,0.2,0.5,0.5
		C196.6,125.1,196.4,125.3,196.1,125.3z"/>
	<path class="st4" d="M219.8,125.3h-18.4c-0.3,0-0.5-0.2-0.5-0.5c0-0.3,0.2-0.5,0.5-0.5h18.4c0.3,0,0.5,0.2,0.5,0.5
		C220.3,125.1,220,125.3,219.8,125.3z"/>
	<path class="st4" d="M227,125.3h-5.1c-0.3,0-0.5-0.2-0.5-0.5c0-0.3,0.2-0.5,0.5-0.5h5.1c0.3,0,0.5,0.2,0.5,0.5
		C227.5,125.1,227.3,125.3,227,125.3z"/>
	<path class="st0" d="M197.9,131.6H193c-0.3,0-0.5-0.2-0.5-0.5c0-0.3,0.2-0.5,0.5-0.5h4.8c0.3,0,0.5,0.2,0.5,0.5
		C198.4,131.3,198.1,131.6,197.9,131.6z"/>
	<path class="st4" d="M224.3,131.6h-21.9c-0.3,0-0.5-0.2-0.5-0.5c0-0.3,0.2-0.5,0.5-0.5h21.9c0.3,0,0.5,0.2,0.5,0.5
		C224.8,131.3,224.6,131.6,224.3,131.6z"/>
	<path class="st4" d="M235.3,131.6h-8.9c-0.3,0-0.5-0.2-0.5-0.5c0-0.3,0.2-0.5,0.5-0.5h8.9c0.3,0,0.5,0.2,0.5,0.5
		C235.9,131.3,235.6,131.6,235.3,131.6z"/>
	<path class="st0" d="M195.7,137.8h-4.7c-0.3,0-0.5-0.2-0.5-0.5c0-0.3,0.2-0.5,0.5-0.5h4.7c0.3,0,0.5,0.2,0.5,0.5
		C196.2,137.5,195.9,137.8,195.7,137.8z"/>
	<path class="st4" d="M221.9,137.8h-20.7c-0.3,0-0.5-0.2-0.5-0.5c0-0.3,0.2-0.5,0.5-0.5h20.7c0.3,0,0.5,0.2,0.5,0.5
		C222.4,137.5,222.1,137.8,221.9,137.8L221.9,137.8z"/>
	<path class="st0" d="M199.9,144.1h-8.9c-0.3,0-0.5-0.2-0.5-0.5c0-0.3,0.2-0.5,0.5-0.5h8.9c0.3,0,0.5,0.2,0.5,0.5
		C200.4,143.8,200.1,144.1,199.9,144.1z"/>
	<path class="st0" d="M210.1,150.3h-17.9c-0.3,0-0.5-0.2-0.5-0.5c0-0.3,0.2-0.5,0.5-0.5h17.9c0.3,0,0.5,0.2,0.5,0.5
		C210.6,150.1,210.4,150.3,210.1,150.3z"/>
	<path class="st4" d="M227,150.3h-12.4c-0.3,0-0.5-0.2-0.5-0.5c0-0.3,0.2-0.5,0.5-0.5H227c0.3,0,0.5,0.2,0.5,0.5
		C227.5,150.1,227.3,150.3,227,150.3z"/>
	<path class="st4" d="M244.1,150.3h-15.3c-0.3,0-0.5-0.2-0.5-0.5c0-0.3,0.2-0.5,0.5-0.5h15.3c0.3,0,0.5,0.2,0.5,0.5
		C244.6,150.1,244.4,150.3,244.1,150.3z"/>
	<path class="st0" d="M219,156.6h-26c-0.3,0-0.5-0.2-0.5-0.5c0-0.3,0.2-0.5,0.5-0.5h26c0.3,0,0.5,0.2,0.5,0.5
		C219.5,156.3,219.3,156.6,219,156.6z"/>
	<path class="st4" d="M234,156.6h-11.7c-0.3,0-0.5-0.2-0.5-0.5c0-0.3,0.2-0.5,0.5-0.5H234c0.3,0,0.5,0.2,0.5,0.5
		C234.6,156.3,234.3,156.6,234,156.6z"/>
	<path class="st4" d="M270.8,156.6h-27.4c-0.3,0-0.5-0.2-0.5-0.5c0-0.3,0.2-0.5,0.5-0.5h27.4c0.3,0,0.5,0.2,0.5,0.5
		C271.3,156.3,271.1,156.6,270.8,156.6z"/>
	<path class="st4" d="M249.4,112.8h-12.1c-0.3,0-0.5-0.2-0.5-0.5c0-0.3,0.2-0.5,0.5-0.5h12.1c0.3,0,0.5,0.2,0.5,0.5
		C249.9,112.6,249.7,112.8,249.4,112.8z"/>
	<path class="st4" d="M258.3,112.9c-4.2,0-4.3-0.1-4.4-0.1c-0.2-0.1-0.3-0.4-0.2-0.7c0.1-0.2,0.3-0.3,0.6-0.2c0.7,0.1,8.5,0,13.6,0
		l0,0c0.3,0,0.5,0.2,0.5,0.5s-0.2,0.5-0.5,0.5C263.4,112.8,260.4,112.9,258.3,112.9z"/>
	<path class="st4" d="M247.5,100.3h-17.5c-0.3,0-0.5-0.2-0.5-0.5s0.2-0.5,0.5-0.5h17.5c0.3,0,0.5,0.2,0.5,0.5
		S247.7,100.3,247.5,100.3z"/>
	<path class="st4" d="M268.4,100.3H251c-0.3,0-0.5-0.2-0.5-0.5s0.2-0.5,0.5-0.5h17.4c0.3,0,0.5,0.2,0.5,0.5S268.7,100.3,268.4,100.3
		z"/>
	<path class="st4" d="M231.3,94.1c-6.1,0-6.2,0-6.2,0c-0.3-0.1-0.4-0.4-0.3-0.6l0,0c0.1-0.2,0.3-0.4,0.6-0.4c0.7,0,12.4,0,20.1,0
		l0,0c0.3,0,0.5,0.2,0.5,0.5s-0.2,0.5-0.5,0.5L231.3,94.1z"/>
	<path class="st0" d="M250.2,94c-0.1,0-0.3-0.1-0.4-0.2c-0.2-0.2-0.2-0.5,0.1-0.7c0.2-0.1,0.4-0.3,12.3-0.1c0.3,0,0.5,0.2,0.5,0.5
		s-0.2,0.5-0.5,0.5c-4.2-0.1-11.1-0.2-11.8,0C250.4,94.1,250.3,94.1,250.2,94z"/>
	<path class="st4" d="M233.3,137.8h-9c-0.3,0-0.5-0.2-0.5-0.5c0-0.3,0.2-0.5,0.5-0.5h9c0.3,0,0.5,0.2,0.5,0.5
		C233.9,137.6,233.6,137.8,233.3,137.8C233.3,137.8,233.3,137.8,233.3,137.8z"/>
	<path class="st4" d="M212.6,144.1h-6.6c-0.3,0-0.5-0.2-0.5-0.5c0-0.3,0.2-0.5,0.5-0.5h6.6c0.3,0,0.5,0.2,0.5,0.5
		C213.1,143.8,212.8,144.1,212.6,144.1z"/>
	<path class="st0" d="M230.9,144.1h-15.8c-0.3,0-0.5-0.2-0.5-0.5c0-0.3,0.2-0.5,0.5-0.5h15.8c0.3,0,0.5,0.2,0.5,0.5
		C231.4,143.8,231.2,144.1,230.9,144.1z"/>
	<path class="st4" d="M264.7,144.1H234c-0.3,0-0.5-0.2-0.5-0.5c0-0.3,0.2-0.5,0.5-0.5h30.6c0.3,0,0.5,0.2,0.5,0.5
		C265.2,143.8,264.9,144.1,264.7,144.1z"/>
	<path class="st0" d="M198.1,76.6h-8.9c-0.3,0-0.5-0.2-0.5-0.5s0.2-0.5,0.5-0.5h8.9c0.3,0,0.5,0.2,0.5,0.5
		C198.6,76.4,198.4,76.6,198.1,76.6z"/>
	<path class="st0" d="M208.3,82.9h-17.8c-0.3,0-0.5-0.2-0.5-0.5s0.2-0.5,0.5-0.5h17.8c0.3,0,0.5,0.2,0.5,0.5S208.6,82.9,208.3,82.9
		L208.3,82.9z"/>
	<path class="st4" d="M225.3,82.9h-12.4c-0.3,0-0.5-0.2-0.5-0.5s0.2-0.5,0.5-0.5h12.4c0.3,0,0.5,0.2,0.5,0.5S225.6,82.9,225.3,82.9z
		"/>
	<path class="st4" d="M242.4,82.9h-15.3c-0.3,0-0.5-0.2-0.5-0.5s0.2-0.5,0.5-0.5h15.3c0.3,0,0.5,0.2,0.5,0.5S242.7,82.9,242.4,82.9z
		"/>
	<path class="st0" d="M217.3,89.1h-26c-0.3,0-0.5-0.2-0.5-0.5s0.2-0.5,0.5-0.5h26c0.3,0,0.5,0.2,0.5,0.5S217.6,89.1,217.3,89.1z"/>
	<path class="st4" d="M232.3,89.1h-11.7c-0.3,0-0.5-0.2-0.5-0.5s0.2-0.5,0.5-0.5h11.7c0.3,0,0.5,0.2,0.5,0.5S232.6,89.1,232.3,89.1z
		"/>
	<path class="st4" d="M269,89.1h-27.4c-0.3,0-0.5-0.2-0.5-0.5s0.2-0.5,0.5-0.5H269c0.3,0,0.5,0.2,0.5,0.5S269.3,89.1,269,89.1z"/>
	<path class="st4" d="M210.8,76.6h-6.6c-0.3,0-0.5-0.2-0.5-0.5s0.2-0.5,0.5-0.5h6.6c0.3,0,0.5,0.2,0.5,0.5S211.1,76.6,210.8,76.6z"
		/>
	<path class="st0" d="M229.2,76.6h-15.8c-0.3,0-0.5-0.2-0.5-0.5c0-0.3,0.2-0.5,0.5-0.5h15.8c0.3,0,0.5,0.2,0.5,0.5
		S229.4,76.6,229.2,76.6z"/>
	<path class="st4" d="M262.9,76.6h-30.6c-0.3,0-0.5-0.2-0.5-0.5s0.2-0.5,0.5-0.5h30.6c0.3,0,0.5,0.2,0.5,0.5
		C263.4,76.4,263.2,76.6,262.9,76.6z"/>
	<path class="st4" d="M203.5,163.5h-12c-0.3,0-0.5-0.2-0.5-0.5c0-0.3,0.2-0.5,0.5-0.5h12c0.3,0,0.5,0.2,0.5,0.5
		C204,163.3,203.8,163.5,203.5,163.5z"/>
	<path class="st4" d="M211.6,163.5h-3.6c-0.3,0-0.5-0.2-0.5-0.5c0-0.3,0.2-0.5,0.5-0.5h3.5c0.3,0,0.5,0.2,0.5,0.5
		C212.1,163.3,211.9,163.5,211.6,163.5z"/>
	<path class="st4" d="M194.6,168.7h-5.5c-0.3,0-0.5-0.2-0.5-0.5s0.2-0.5,0.5-0.5h5.5c0.3,0,0.5,0.2,0.5,0.5S194.8,168.7,194.6,168.7
		z"/>
	<rect x="181.4" y="75.1" class="st3" width="1.5" height="1.5"/>
	<rect x="181.4" y="81.3" class="st3" width="1.5" height="1.5"/>
	<rect x="181.4" y="87.5" class="st3" width="1.5" height="1.5"/>
	<rect x="181.4" y="93.6" class="st3" width="1.5" height="1.5"/>
	<rect x="181.4" y="99.8" class="st3" width="1.5" height="1.5"/>
	<rect x="181.4" y="105.9" class="st3" width="1.5" height="1.5"/>
	<rect x="181.4" y="112.1" class="st3" width="1.5" height="1.5"/>
	<rect x="181.4" y="118.2" class="st3" width="1.5" height="1.5"/>
	<rect x="181.4" y="124.4" class="st3" width="1.5" height="1.5"/>
	<rect x="181.4" y="130.5" class="st3" width="1.5" height="1.5"/>
	<rect x="181.4" y="136.7" class="st3" width="1.5" height="1.5"/>
	<rect x="181.4" y="142.8" class="st3" width="1.5" height="1.5"/>
	<rect x="181.4" y="149" class="st3" width="1.5" height="1.5"/>
	<rect x="181.4" y="155.1" class="st3" width="1.5" height="1.5"/>
	<rect x="181.4" y="161.3" class="st3" width="1.5" height="1.5"/>
	<rect x="181.4" y="167.5" class="st3" width="1.5" height="1.5"/>
	<path class="st0" d="M139.2,85.8H135c-0.3,0-0.5-0.2-0.5-0.5s0.2-0.5,0.5-0.5h4.2c0.3,0,0.5,0.2,0.5,0.5
		C139.7,85.5,139.4,85.8,139.2,85.8z"/>
	<path d="M149.6,85.8h-8.3c-0.3,0-0.5-0.2-0.5-0.5s0.2-0.5,0.5-0.5h8.3c0.3,0,0.5,0.2,0.5,0.5S149.9,85.8,149.6,85.8z"/>
	<path d="M152.1,89.9h-8.3c-0.3,0-0.5-0.2-0.5-0.5s0.2-0.5,0.5-0.5h8.3c0.3,0,0.5,0.2,0.5,0.5C152.6,89.6,152.4,89.9,152.1,89.9z"/>
	<path class="st0" d="M140.1,89.9H136c-0.3,0-0.5-0.2-0.5-0.5s0.2-0.5,0.5-0.5h4.2c0.3,0,0.5,0.2,0.5,0.5
		C140.7,89.6,140.4,89.9,140.1,89.9C140.2,89.9,140.1,89.9,140.1,89.9z"/>
	<path class="st0" d="M140.3,94H137c-0.3,0-0.5-0.2-0.5-0.5s0.2-0.5,0.5-0.5h3.3c0.3,0,0.5,0.2,0.5,0.5S140.6,94,140.3,94z"/>
	<path d="M153.6,94h-10.4c-0.3,0-0.5-0.2-0.5-0.5c0-0.3,0.2-0.5,0.5-0.5h10.4c0.3,0,0.5,0.2,0.5,0.5C154.1,93.7,153.9,94,153.6,94z"
		/>
	<path class="st0" d="M144.2,98h-5.4c-0.3,0-0.5-0.2-0.5-0.5s0.2-0.5,0.5-0.5h5.4c0.3,0,0.5,0.2,0.5,0.5S144.5,98,144.2,98z"/>
	<path d="M162.1,98H146c-0.3,0-0.5-0.2-0.5-0.5s0.2-0.5,0.5-0.5h16.1c0.3,0,0.5,0.2,0.5,0.5S162.3,98,162.1,98z"/>
	<path class="st0" d="M142.8,102.1h-5.4c-0.3,0-0.5-0.2-0.5-0.5s0.2-0.5,0.5-0.5h5.4c0.3,0,0.5,0.2,0.5,0.5S143.1,102.1,142.8,102.1
		z"/>
	<path d="M153.6,102.1h-8.7c-0.3,0-0.5-0.2-0.5-0.5s0.2-0.5,0.5-0.5h8.7c0.3,0,0.5,0.2,0.5,0.5S153.9,102.1,153.6,102.1z"/>
	<path d="M163.2,102.1h-6.3c-0.3,0-0.5-0.2-0.5-0.5s0.2-0.5,0.5-0.5h6.3c0.3,0,0.5,0.2,0.5,0.5S163.5,102.1,163.2,102.1z"/>
	<path class="st0" d="M139.2,106.2h-1.9c-0.3,0-0.5-0.2-0.5-0.5s0.2-0.5,0.5-0.5h1.9c0.3,0,0.5,0.2,0.5,0.5
		C139.8,106,139.5,106.2,139.2,106.2z"/>
	<path d="M153.6,106.2h-11.2c-0.3,0-0.5-0.2-0.5-0.5s0.2-0.5,0.5-0.5h11.2c0.3,0,0.5,0.2,0.5,0.5S153.9,106.2,153.6,106.2z"/>
	<path d="M158,106.2h-3.1c-0.3,0-0.5-0.2-0.5-0.5s0.2-0.5,0.5-0.5h3.1c0.3,0,0.5,0.2,0.5,0.5S158.3,106.2,158,106.2z"/>
	<path class="st0" d="M140.3,110.4h-2.9c-0.3,0-0.5-0.2-0.5-0.5c0-0.3,0.2-0.5,0.5-0.5h2.9c0.3,0,0.5,0.2,0.5,0.5
		C140.8,110.1,140.6,110.4,140.3,110.4z"/>
	<path d="M156.3,110.4h-13.2c-0.3,0-0.5-0.2-0.5-0.5c0-0.3,0.2-0.5,0.5-0.5h13.2c0.3,0,0.5,0.2,0.5,0.5
		C156.8,110.1,156.6,110.4,156.3,110.4z"/>
	<path d="M163,110.4h-5.4c-0.3,0-0.5-0.2-0.5-0.5c0-0.3,0.2-0.5,0.5-0.5h5.4c0.3,0,0.5,0.2,0.5,0.5
		C163.6,110.1,163.3,110.4,163,110.4z"/>
	<path class="st0" d="M139,114.4h-2.9c-0.3,0-0.5-0.2-0.5-0.5s0.2-0.5,0.5-0.5h2.9c0.3,0,0.5,0.2,0.5,0.5
		C139.5,114.2,139.3,114.4,139,114.4z"/>
	<path d="M154.9,114.4h-12.6c-0.3,0-0.5-0.2-0.5-0.5c0-0.3,0.2-0.5,0.5-0.5h12.6c0.3,0,0.5,0.2,0.5,0.5
		C155.4,114.2,155.2,114.4,154.9,114.4z"/>
	<path class="st0" d="M141.5,118.5h-5.4c-0.3,0-0.5-0.2-0.5-0.5s0.2-0.5,0.5-0.5h5.4c0.3,0,0.5,0.2,0.5,0.5S141.8,118.5,141.5,118.5
		L141.5,118.5z"/>
	<path class="st0" d="M147.7,122.6h-10.8c-0.3,0-0.5-0.2-0.5-0.5s0.2-0.5,0.5-0.5h10.8c0.3,0,0.5,0.2,0.5,0.5S148,122.6,147.7,122.6
		z"/>
	<path d="M158,122.6h-7.5c-0.3,0-0.5-0.2-0.5-0.5s0.2-0.5,0.5-0.5h7.5c0.3,0,0.5,0.2,0.5,0.5S158.3,122.6,158,122.6z"/>
	<path d="M163.5,122.6h-4.4c-0.3,0-0.5-0.2-0.5-0.5s0.2-0.5,0.5-0.5h4.4c0.3,0,0.5,0.2,0.5,0.5S163.8,122.6,163.5,122.6z"/>
	<path class="st0" d="M153.1,126.7h-15.8c-0.3,0-0.5-0.2-0.5-0.5s0.2-0.5,0.5-0.5h15.8c0.3,0,0.5,0.2,0.5,0.5
		S153.4,126.7,153.1,126.7L153.1,126.7z"/>
	<path d="M162.3,126.7h-7.1c-0.3,0-0.5-0.2-0.5-0.5s0.2-0.5,0.5-0.5h7.1c0.3,0,0.5,0.2,0.5,0.5S162.5,126.7,162.3,126.7z"/>
	<path d="M154.2,85.8c-0.8,0-1.6,0-2.4,0c-0.3,0-0.5-0.2-0.5-0.5c0,0,0,0,0,0c0-0.3,0.2-0.5,0.5-0.5c1.3,0,2.6,0,4,0h1.1
		c0.3,0,0.5,0.2,0.5,0.5s-0.2,0.5-0.5,0.5H154.2L154.2,85.8z"/>
	<path d="M161.8,114.4h-5.5c-0.3,0-0.5-0.2-0.5-0.5c0-0.3,0.2-0.5,0.5-0.5h5.5c0.3,0,0.5,0.2,0.5,0.5
		C162.3,114.2,162.1,114.4,161.8,114.4z"/>
	<path d="M149.2,118.5h-4.1c-0.3,0-0.5-0.2-0.5-0.5c0-0.3,0.2-0.5,0.5-0.5h4.1c0.3,0,0.5,0.2,0.5,0.5S149.5,118.5,149.2,118.5z"/>
	<path class="st0" d="M160.4,118.5h-9.6c-0.3,0-0.5-0.2-0.5-0.5c0-0.3,0.2-0.5,0.5-0.5h9.6c0.3,0,0.5,0.2,0.5,0.5
		S160.7,118.5,160.4,118.5z"/>
	<path class="st0" d="M139.3,66.2h-2.9c-0.3,0-0.5-0.2-0.5-0.5s0.2-0.5,0.5-0.5h2.9c0.3,0,0.5,0.2,0.5,0.5
		C139.8,66,139.5,66.2,139.3,66.2z"/>
	<path d="M155.3,66.2H142c-0.3,0-0.5-0.2-0.5-0.5c0-0.3,0.2-0.5,0.5-0.5h13.3c0.3,0,0.5,0.2,0.5,0.5S155.6,66.2,155.3,66.2z"/>
	<path d="M162,66.2h-5.4c-0.3,0-0.5-0.2-0.5-0.5c0-0.3,0.2-0.5,0.5-0.5h5.4c0.3,0,0.5,0.2,0.5,0.5C162.5,66,162.3,66.2,162,66.2z"/>
	<path class="st0" d="M137.9,70.3h-2.9c-0.3,0-0.5-0.2-0.5-0.5s0.2-0.5,0.5-0.5h2.9c0.3,0,0.5,0.2,0.5,0.5
		C138.4,70.1,138.2,70.3,137.9,70.3z"/>
	<path d="M153.8,70.3h-12.5c-0.3,0-0.5-0.2-0.5-0.5c0-0.3,0.2-0.5,0.5-0.5h12.5c0.3,0,0.5,0.2,0.5,0.5S154.1,70.3,153.8,70.3z"/>
	<path class="st0" d="M140.5,74.4h-5.4c-0.3,0-0.5-0.2-0.5-0.5s0.2-0.5,0.5-0.5h5.4c0.3,0,0.5,0.2,0.5,0.5S140.8,74.4,140.5,74.4z"
		/>
	<path class="st0" d="M144,78.5h-8.3c-0.3,0-0.5-0.2-0.5-0.5s0.2-0.5,0.5-0.5h8.3c0.3,0,0.5,0.2,0.5,0.5S144.2,78.5,144,78.5z"/>
	<path d="M151.8,78.5h-5.8c-0.3,0-0.5-0.2-0.5-0.5s0.2-0.5,0.5-0.5h5.8c0.3,0,0.5,0.2,0.5,0.5S152.1,78.5,151.8,78.5z"/>
	<path d="M156.7,78.5h-4.1c-0.3,0-0.5-0.2-0.5-0.5s0.2-0.5,0.5-0.5h4.1c0.3,0,0.5,0.2,0.5,0.5S157,78.5,156.7,78.5z"/>
	<path class="st0" d="M148.1,82.6H136c-0.3,0-0.5-0.2-0.5-0.5s0.2-0.5,0.5-0.5h12.1c0.3,0,0.5,0.2,0.5,0.5S148.4,82.6,148.1,82.6
		L148.1,82.6z"/>
	<path d="M155.1,82.6h-5.4c-0.3,0-0.5-0.2-0.5-0.5s0.2-0.5,0.5-0.5h5.4c0.3,0,0.5,0.2,0.5,0.5S155.4,82.6,155.1,82.6z"/>
	<path d="M160.8,70.3h-5.5c-0.3,0-0.5-0.2-0.5-0.5c0-0.3,0.2-0.5,0.5-0.5h5.5c0.3,0,0.5,0.2,0.5,0.5
		C161.3,70.1,161.1,70.3,160.8,70.3C160.8,70.3,160.8,70.3,160.8,70.3z"/>
	<path d="M148.2,74.4h-4.1c-0.3,0-0.5-0.2-0.5-0.5c0-0.3,0.2-0.5,0.5-0.5h4.1c0.3,0,0.5,0.2,0.5,0.5S148.5,74.4,148.2,74.4z"/>
	<path class="st0" d="M159.3,74.4h-9.6c-0.3,0-0.5-0.2-0.5-0.5c0-0.3,0.2-0.5,0.5-0.5h9.6c0.3,0,0.5,0.2,0.5,0.5
		S159.6,74.4,159.3,74.4z"/>
	<rect x="127.5" y="65.2" width="0.8" height="1"/>
	<rect x="127.5" y="69.2" width="0.8" height="1"/>
	<rect x="127.5" y="73.2" width="0.8" height="1"/>
	<rect x="127.5" y="77.3" width="0.8" height="1"/>
	<rect x="127.5" y="81.3" width="0.8" height="1"/>
	<rect x="127.5" y="85.3" width="0.8" height="1"/>
	<rect x="127.5" y="89.3" width="0.8" height="1"/>
	<rect x="127.5" y="93.4" width="0.8" height="1"/>
	<rect x="127.5" y="97.4" width="0.8" height="1"/>
	<rect x="127.5" y="101.4" width="0.8" height="1"/>
	<rect x="127.5" y="105.4" width="0.8" height="1"/>
	<rect x="127.5" y="109.5" width="0.8" height="1"/>
	<rect x="127.5" y="113.5" width="0.8" height="1"/>
	<rect x="127.5" y="117.5" width="0.8" height="1"/>
	<rect x="127.5" y="121.5" width="0.8" height="1"/>
	<rect x="127.5" y="125.6" width="0.8" height="1"/>
	<path class="st0" d="M139.8,150.8H135c-0.3,0-0.5-0.2-0.5-0.5s0.2-0.5,0.5-0.5h4.8c0.3,0,0.5,0.2,0.5,0.5
		C140.3,150.6,140,150.8,139.8,150.8z"/>
	<path d="M151.8,150.8h-9.5c-0.3,0-0.5-0.2-0.5-0.5s0.2-0.5,0.5-0.5h9.5c0.3,0,0.5,0.2,0.5,0.5S152,150.8,151.8,150.8z"/>
	<path d="M154.6,154.9h-9.5c-0.3,0-0.5-0.2-0.5-0.5c0-0.3,0.2-0.5,0.5-0.5h9.5c0.3,0,0.5,0.2,0.5,0.5
		C155.1,154.7,154.9,154.9,154.6,154.9L154.6,154.9z"/>
	<path class="st0" d="M140.9,154.9h-4.8c-0.3,0-0.5-0.2-0.5-0.5c0-0.3,0.2-0.5,0.5-0.5h4.8c0.3,0,0.5,0.2,0.5,0.5
		C141.4,154.7,141.2,154.9,140.9,154.9z"/>
	<path class="st0" d="M141.1,159h-3.8c-0.3,0-0.5-0.2-0.5-0.5c0-0.3,0.2-0.5,0.5-0.5h3.8c0.3,0,0.5,0.2,0.5,0.5
		C141.6,158.8,141.4,159,141.1,159z"/>
	<path d="M156.3,159h-11.9c-0.3,0-0.5-0.2-0.5-0.5c0-0.3,0.2-0.5,0.5-0.5h11.9c0.3,0,0.5,0.2,0.5,0.5
		C156.8,158.8,156.6,159,156.3,159z"/>
	<path class="st0" d="M143.1,163.1h-4.8c-0.3,0-0.5-0.2-0.5-0.5c0-0.3,0.2-0.5,0.5-0.5h4.8c0.3,0,0.5,0.2,0.5,0.5
		C143.6,162.9,143.4,163.1,143.1,163.1z"/>
	<path d="M158.8,163.1h-14.1c-0.3,0-0.5-0.2-0.5-0.5c0-0.3,0.2-0.5,0.5-0.5h14.1c0.3,0,0.5,0.2,0.5,0.5
		C159.3,162.9,159,163.1,158.8,163.1z"/>
	<path class="st0" d="M141.8,167.2h-4.8c-0.3,0-0.5-0.2-0.5-0.5c0-0.3,0.2-0.5,0.5-0.5h4.8c0.3,0,0.5,0.2,0.5,0.5
		C142.4,167,142.1,167.2,141.8,167.2z"/>
	<path d="M151.3,167.2h-7.7c-0.3,0-0.5-0.2-0.5-0.5c0-0.3,0.2-0.5,0.5-0.5h7.7c0.3,0,0.5,0.2,0.5,0.5
		C151.8,167,151.6,167.2,151.3,167.2z"/>
	<path d="M159.8,167.2h-5.5c-0.3,0-0.5-0.2-0.5-0.5c0-0.3,0.2-0.5,0.5-0.5h5.6c0.3,0,0.5,0.2,0.5,0.5
		C160.3,167,160.1,167.2,159.8,167.2C159.8,167.2,159.8,167.2,159.8,167.2z"/>
	<path d="M156.9,150.9c-0.9,0-1.8,0-2.7,0c-0.3,0-0.5-0.2-0.5-0.5c0-0.3,0.2-0.5,0.5-0.5c0,0,0,0,0,0c1.5,0,3,0,4.5,0h1.3
		c0.3,0,0.5,0.2,0.5,0.5c0,0.3-0.2,0.5-0.5,0.5H156.9z"/>
	<path class="st0" d="M138.7,131.3h-2.6c-0.3,0-0.5-0.2-0.5-0.5c0-0.3,0.2-0.5,0.5-0.5h2.6c0.3,0,0.5,0.2,0.5,0.5
		C139.2,131,139,131.3,138.7,131.3z"/>
	<path d="M152.8,131.3h-11.6c-0.3,0-0.5-0.2-0.5-0.5c0-0.3,0.2-0.5,0.5-0.5h11.6c0.3,0,0.5,0.2,0.5,0.5
		C153.3,131,153.1,131.3,152.8,131.3z"/>
	<path d="M158.7,131.3H154c-0.3,0-0.5-0.2-0.5-0.5c0-0.3,0.2-0.5,0.5-0.5h4.8c0.3,0,0.5,0.2,0.5,0.5
		C159.2,131,159,131.3,158.7,131.3z"/>
	<path class="st0" d="M137.6,135.4h-2.5c-0.3,0-0.5-0.2-0.5-0.5c0-0.3,0.2-0.5,0.5-0.5h2.5c0.3,0,0.5,0.2,0.5,0.5
		C138.1,135.1,137.9,135.4,137.6,135.4z"/>
	<path d="M151.5,135.4h-11c-0.3,0-0.5-0.2-0.5-0.5c0-0.3,0.2-0.5,0.5-0.5h11c0.3,0,0.5,0.2,0.5,0.5
		C152,135.1,151.8,135.4,151.5,135.4L151.5,135.4z"/>
	<path class="st0" d="M139.8,139.4h-4.8c-0.3,0-0.5-0.2-0.5-0.5c0-0.3,0.2-0.5,0.5-0.5h4.8c0.3,0,0.5,0.2,0.5,0.5
		C140.3,139.2,140.1,139.4,139.8,139.4z"/>
	<path class="st0" d="M145.2,143.5h-9.5c-0.3,0-0.5-0.2-0.5-0.5c0-0.3,0.2-0.5,0.5-0.5h9.5c0.3,0,0.5,0.2,0.5,0.5
		S145.5,143.5,145.2,143.5z"/>
	<path d="M154.3,143.5h-6.6c-0.3,0-0.5-0.2-0.5-0.5s0.2-0.5,0.5-0.5h6.6c0.3,0,0.5,0.2,0.5,0.5S154.6,143.5,154.3,143.5z"/>
	<path d="M159.9,143.5h-4.7c-0.3,0-0.5-0.2-0.5-0.5s0.2-0.5,0.5-0.5h4.7c0.3,0,0.5,0.2,0.5,0.5S160.2,143.5,159.9,143.5z"/>
	<path class="st0" d="M150,147.6h-13.8c-0.3,0-0.5-0.2-0.5-0.5c0-0.3,0.2-0.5,0.5-0.5H150c0.3,0,0.5,0.2,0.5,0.5
		C150.5,147.4,150.3,147.6,150,147.6L150,147.6z"/>
	<path d="M158,147.6h-6.2c-0.3,0-0.5-0.2-0.5-0.5c0-0.3,0.2-0.5,0.5-0.5h6.2c0.3,0,0.5,0.2,0.5,0.5
		C158.5,147.4,158.3,147.6,158,147.6z"/>
	<path d="M157.6,135.4h-4.8c-0.3,0-0.5-0.2-0.5-0.5c0-0.3,0.2-0.5,0.5-0.5h4.8c0.3,0,0.5,0.2,0.5,0.5
		C158.1,135.1,157.9,135.4,157.6,135.4z"/>
	<path d="M146.6,139.4H143c-0.3,0-0.5-0.2-0.5-0.5c0-0.3,0.2-0.5,0.5-0.5h3.5c0.3,0,0.5,0.2,0.5,0.5
		C147.1,139.2,146.9,139.4,146.6,139.4z"/>
	<path class="st0" d="M156.3,139.4h-8.4c-0.3,0-0.5-0.2-0.5-0.5c0-0.3,0.2-0.5,0.5-0.5h8.4c0.3,0,0.5,0.2,0.5,0.5
		C156.8,139.2,156.6,139.4,156.3,139.4z"/>
	<rect x="127.5" y="130.3" width="0.8" height="1"/>
	<rect x="127.5" y="134.3" width="0.8" height="1"/>
	<rect x="127.5" y="138.3" width="0.8" height="1"/>
	<rect x="127.5" y="142.3" width="0.8" height="1"/>
	<rect x="127.5" y="146.4" width="0.8" height="1"/>
	<rect x="127.5" y="150.4" width="0.8" height="1"/>
	<rect x="127.5" y="154.4" width="0.8" height="1"/>
	<rect x="127.5" y="158.4" width="0.8" height="1"/>
	<rect x="127.5" y="162.4" width="0.8" height="1"/>
	<rect x="127.5" y="166.5" width="0.8" height="1"/>
	<path class="st1" d="M83.3,211.2c-1.3,0-2.5-0.1-3.8-0.4c-0.3-0.1-0.4-0.3-0.4-0.5c0.1-0.3,0.3-0.4,0.6-0.4c0.1,0,7,1.4,11.1-1.8
		c2-1.6,3-4.1,3-7.4c0.1-1.2-0.3-2.3-1.3-3c-2.2-1.4-6.6,0.7-6.6,0.7c-0.2,0.1-0.5,0-0.6-0.3c-0.1-0.2,0-0.4,0.2-0.5
		c0.2-0.1,4.9-2.4,7.6-0.7c1.1,0.7,1.7,2,1.7,3.9c0,3.6-1.2,6.3-3.4,8.1C89,210.5,86.2,211.4,83.3,211.2z"/>
	<ellipse class="st0" cx="64.8" cy="222.6" rx="30.5" ry="8.6"/>
	<path class="st1" d="M64.8,231.7c-17.4,0-31-4-31-9.1s13.6-9.1,31-9.1s31,4,31,9.1S82.2,231.7,64.8,231.7z M64.8,214.6
		c-17.9,0-30,4.2-30,8.1s12,8.1,30,8.1s30-4.2,30-8.1S82.8,214.6,64.8,214.6z"/>
	<ellipse class="st3" cx="64.8" cy="221.8" rx="12.9" ry="2.7"/>
	<path class="st0" d="M89.3,188.5c0,4.4-2.4,34.3-24.5,34.3s-24.5-29.9-24.5-34.3c0-4.4,11-7.9,24.5-7.9S89.3,184.2,89.3,188.5z"/>
	<path class="st1" d="M64.8,223.3c-9.4,0-16.6-5.5-20.9-15.8c-2.4-6.1-3.8-12.5-4-19c0-4.7,11-8.4,24.9-8.4s24.9,3.7,24.9,8.4
		c-0.2,6.5-1.6,12.9-4,19C81.5,217.8,74.2,223.3,64.8,223.3z M64.8,181.1c-13,0-24,3.4-24,7.5c0,0.3,1,33.8,24,33.8s24-33.5,24-33.8
		C88.9,184.5,77.9,181.1,64.8,181.1L64.8,181.1z"/>
	<ellipse class="st1" cx="64.8" cy="188.5" rx="24.5" ry="7.9"/>
	<path class="st1" d="M64.8,197c-14,0-25-3.7-25-8.4s11-8.4,25-8.4s25,3.7,25,8.4S78.9,197,64.8,197z M64.8,181.1
		c-14.3,0-24,3.8-24,7.4s9.6,7.4,24,7.4s24-3.8,24-7.5S79.2,181.1,64.8,181.1z"/>
</g>
</svg>
